<?xml version="1.0" encoding="iso-8859-1"?>
<!-- Uploaded to: SVG Repo, www.svgrepo.com, Generator: SVG Repo Mixer Tools -->
<svg fill="#000000" height="800px" width="800px" version="1.1" id="Layer_1" xmlns="http://www.w3.org/2000/svg" xmlns:xlink="http://www.w3.org/1999/xlink" 
	 viewBox="0 0 297 297" xml:space="preserve">
<g>
	<g>
		<path d="M276.354,215.56h-25.516l-22.562-22.562c2.91-4.938,4.163-10.739,3.466-16.518c-1.564-12.969-2.813-22.582-3.71-28.573
			c-2.718-18.133-16.647-32.894-35.485-37.604l-14.834-3.708c-1.96-1.904-2.289-8.161-1.751-11.493
			c2.381-2.294,4.691-4.876,6.752-7.754c8.026-11.21,12.628-25.494,12.628-39.187c0-27.51-19.214-46.724-46.724-46.724
			s-46.724,19.214-46.724,46.724c0,13.693,4.603,27.977,12.628,39.187c2.06,2.875,4.371,5.456,6.75,7.75
			c0.54,3.33,0.213,9.591-1.749,11.496l-14.835,3.708c-18.837,4.71-32.766,19.471-35.484,37.604
			c-0.901,6.013-2.15,15.626-3.711,28.573c-0.69,5.721,0.53,11.465,3.378,16.371l-22.709,22.709H20.646
			C9.262,215.559,0,224.82,0,236.206v23.196c0,11.385,9.262,20.646,20.646,20.646h54.23c11.385,0,20.646-9.262,20.646-20.646
			v-23.196c0-11.385-9.262-20.646-20.646-20.646h-0.524l10.496-10.496c2.192,0.585,4.47,0.892,6.781,0.892h47.022v25.12h-17.266
			c-11.385,0-20.646,9.262-20.646,20.646v23.196c0,11.385,9.262,20.646,20.646,20.646h54.23c11.385,0,20.646-9.262,20.646-20.646
			v-23.196c0-11.385-9.262-20.646-20.646-20.646h-17.031v-25.12h47.022c2.245,0,4.457-0.293,6.592-0.846l10.45,10.45h-0.524
			c-11.385,0-20.646,9.262-20.646,20.646v23.196c0,11.385,9.262,20.646,20.646,20.646h54.23c11.385,0,20.646-9.262,20.646-20.646
			v-23.196C297,224.82,287.738,215.56,276.354,215.56z M74.876,233.498c1.492,0,2.707,1.215,2.707,2.707v23.196
			c0,1.492-1.215,2.707-2.707,2.707h-54.23c-1.492,0-2.707-1.215-2.707-2.707v-23.196c0-1.492,1.215-2.707,2.707-2.707H74.876z
			 M148.618,21.367c12.952,0,26.791,7.038,26.791,26.791c0,19.339-13.521,39.043-26.791,39.043
			c-13.27,0-26.791-19.704-26.791-39.043C121.827,28.406,135.666,21.367,148.618,21.367z M161.256,117.952
			c-0.661,6.39-6.076,11.389-12.638,11.389c-6.562,0-11.977-5-12.638-11.389c2.684-3.671,4.106-7.842,4.818-11.749
			c2.578,0.605,5.192,0.932,7.82,0.932c2.627,0,5.242-0.328,7.82-0.932C157.15,110.109,158.571,114.281,161.256,117.952z
			 M175.614,249.015c1.493,0,2.707,1.215,2.707,2.707v23.196c0,1.492-1.215,2.707-2.707,2.707h-54.23
			c-1.492,0-2.707-1.215-2.707-2.707v-23.196c0-1.492,1.215-2.707,2.707-2.707H175.614z M210.389,183.872
			c-0.712,0.803-2.281,2.151-4.784,2.151H91.629c-2.503,0-4.072-1.348-4.785-2.151c-0.712-0.804-1.862-2.522-1.563-5.007
			c1.517-12.578,2.775-22.262,3.635-28.004c1.497-9.986,9.778-18.514,20.605-21.222l8.342-2.085
			c4.502,12.643,16.586,21.72,30.754,21.72c14.168,0,26.252-9.078,30.754-21.72l8.341,2.085
			c10.829,2.708,19.109,11.236,20.606,21.222c0.857,5.721,2.114,15.404,3.634,28.004
			C212.251,181.349,211.101,183.068,210.389,183.872z M279.06,259.401c0,1.492-1.215,2.707-2.707,2.707h-54.23
			c-1.492,0-2.707-1.215-2.707-2.707v-23.196c0-1.492,1.215-2.707,2.707-2.707h54.23c1.492,0,2.707,1.215,2.707,2.707V259.401z"/>
	</g>
</g>
</svg>